<svg fill="none" height="12" viewBox="0 0 12 12" width="12" xmlns="http://www.w3.org/2000/svg">
    <path
        d="M7.76533 9.48465C7.80017 9.51949 7.82781 9.56086 7.84667 9.60638C7.86552 9.6519 7.87523 9.70069 7.87523 9.74996C7.87523 9.79924 7.86552 9.84803 7.84667 9.89355C7.82781 9.93907 7.80017 9.98044 7.76533 10.0153C7.73049 10.0501 7.68913 10.0778 7.64361 10.0966C7.59808 10.1155 7.54929 10.1252 7.50002 10.1252C7.45075 10.1252 7.40196 10.1155 7.35643 10.0966C7.31091 10.0778 7.26955 10.0501 7.23471 10.0153L3.48471 6.26528C3.44984 6.23045 3.42218 6.18909 3.40331 6.14357C3.38444 6.09804 3.37473 6.04925 3.37473 5.99996C3.37473 5.95068 3.38444 5.90189 3.40331 5.85636C3.42218 5.81084 3.44984 5.76948 3.48471 5.73465L7.23471 1.98465C7.30507 1.91429 7.40051 1.87476 7.50002 1.87476C7.59953 1.87476 7.69497 1.91429 7.76533 1.98465C7.8357 2.05502 7.87523 2.15045 7.87523 2.24996C7.87523 2.34948 7.8357 2.44491 7.76533 2.51528L4.28018 5.99996L7.76533 9.48465Z"
        fill="#E2E8F0" />
</svg>
