<svg fill="none" height="12" viewBox="0 0 12 12" width="12" xmlns="http://www.w3.org/2000/svg">
    <path
        d="M8.51529 6.26528L4.76529 10.0153C4.73045 10.0501 4.68909 10.0778 4.64357 10.0966C4.59804 10.1155 4.54925 10.1252 4.49998 10.1252C4.45071 10.1252 4.40192 10.1155 4.35639 10.0966C4.31087 10.0778 4.26951 10.0501 4.23467 10.0153C4.19983 9.98044 4.17219 9.93907 4.15333 9.89355C4.13448 9.84803 4.12477 9.79924 4.12477 9.74996C4.12477 9.70069 4.13448 9.6519 4.15333 9.60638C4.17219 9.56086 4.19983 9.51949 4.23467 9.48465L7.71982 5.99996L4.23467 2.51528C4.1643 2.44491 4.12477 2.34948 4.12477 2.24996C4.12477 2.15045 4.1643 2.05502 4.23467 1.98465C4.30503 1.91429 4.40047 1.87476 4.49998 1.87476C4.59949 1.87476 4.69493 1.91429 4.76529 1.98465L8.51529 5.73465C8.55016 5.76948 8.57782 5.81084 8.59669 5.85636C8.61556 5.90189 8.62527 5.95068 8.62527 5.99996C8.62527 6.04925 8.61556 6.09804 8.59669 6.14357C8.57782 6.18909 8.55016 6.23045 8.51529 6.26528Z"
        fill="#E2E8F0" />
</svg>
